<?xml version="1.0" standalone="no"?>
<!DOCTYPE svg PUBLIC "-//W3C//DTD SVG 20010904//EN"
 "http://www.w3.org/TR/2001/REC-SVG-20010904/DTD/svg10.dtd">
<svg version="1.0" xmlns="http://www.w3.org/2000/svg"
 width="767.000000pt" height="767.000000pt" viewBox="0 0 767.000000 767.000000"
 preserveAspectRatio="xMidYMid meet">
<metadata>
Created by potrace 1.14, written by Peter Selinger 2001-2017
</metadata>
<g transform="translate(0.000000,767.000000) scale(0.100000,-0.100000)"
fill="#000000" stroke="none">
<path d="M3520 7265 c-186 -17 -237 -23 -371 -46 -717 -119 -1401 -435 -1934
-893 -74 -63 -306 -293 -365 -361 -146 -168 -295 -378 -394 -552 -293 -521
-429 -1045 -420 -1618 2 -121 6 -233 8 -250 3 -16 7 -55 11 -85 46 -405 200
-861 413 -1222 26 -44 55 -94 66 -111 50 -87 216 -308 316 -422 64 -74 294
-301 373 -369 609 -521 1371 -836 2242 -927 190 -19 728 -16 829 6 12 2 44 7
71 9 354 36 899 188 1210 339 28 13 68 32 90 43 81 37 263 139 377 211 98 62
300 204 318 223 3 3 46 38 95 79 122 100 361 342 466 471 426 525 668 1105
733 1755 13 134 15 519 2 575 -3 14 -8 52 -11 85 -25 255 -113 586 -227 855
-93 219 -216 438 -361 643 -198 277 -488 572 -772 783 -44 32 -84 63 -90 67
-120 93 -472 290 -692 386 -374 163 -831 281 -1223 316 -41 4 -86 9 -100 11
-58 11 -535 10 -660 -1z"/>
</g>
</svg>
