<?xml version="1.0" standalone="no"?>
<!DOCTYPE svg PUBLIC "-//W3C//DTD SVG 20010904//EN"
 "http://www.w3.org/TR/2001/REC-SVG-20010904/DTD/svg10.dtd">
<svg version="1.0" xmlns="http://www.w3.org/2000/svg"
 width="100.000000pt" height="100.000000pt" viewBox="0 0 100.000000 100.000000"
 preserveAspectRatio="xMidYMid meet">

<g transform="translate(0.000000,100.000000) scale(0.100000,-0.100000)"
fill="#000000" stroke="none">
<path d="M469 984 c-10 -12 -10 -22 -1 -48 7 -18 12 -42 12 -54 0 -15 6 -22
20 -22 14 0 20 7 20 22 0 12 5 36 12 54 13 37 0 64 -32 64 -10 0 -23 -7 -31
-16z"/>
<path d="M147 853 c-18 -17 -6 -54 21 -65 15 -7 36 -20 48 -30 18 -16 23 -17
33 -5 9 11 8 17 -4 27 -9 8 -22 28 -30 47 -10 24 -20 33 -38 33 -13 0 -27 -3
-30 -7z"/>
<path d="M788 833 c-6 -15 -20 -37 -30 -49 -16 -18 -17 -23 -5 -33 11 -9 17
-8 27 4 8 9 29 23 47 30 29 12 34 19 31 42 -2 22 -9 29 -30 31 -22 3 -30 -2
-40 -25z"/>
<path d="M394 822 c-291 -104 -313 -493 -36 -629 49 -24 69 -28 142 -28 73 0
93 4 142 28 72 35 130 93 165 165 24 49 28 69 28 142 0 73 -4 93 -28 142 -57
117 -164 188 -290 195 -52 3 -86 -1 -123 -15z m86 -122 c0 -33 3 -40 20 -40
17 0 20 7 20 40 0 25 5 40 13 40 19 0 117 -48 117 -58 0 -5 -11 -19 -25 -32
-19 -18 -22 -26 -13 -37 9 -11 16 -9 38 12 14 14 29 25 33 25 9 0 42 -68 51
-102 6 -27 5 -28 -34 -28 -33 0 -40 -3 -40 -20 0 -17 7 -20 40 -20 25 0 40 -5
40 -12 0 -19 -48 -118 -56 -118 -5 0 -20 11 -34 25 -22 21 -29 23 -38 12 -9
-11 -6 -19 13 -37 14 -13 25 -27 25 -32 0 -10 -98 -58 -117 -58 -8 0 -13 15
-13 40 0 33 -3 40 -20 40 -17 0 -20 -7 -20 -40 0 -25 -5 -40 -12 -40 -19 0
-118 48 -118 56 0 5 11 20 25 34 21 22 23 29 12 38 -11 9 -19 6 -37 -13 -13
-14 -27 -25 -32 -25 -10 0 -43 65 -52 103 -6 26 -5 27 34 27 33 0 40 3 40 20
0 17 -7 20 -40 20 -39 0 -40 1 -34 28 9 37 42 102 52 102 5 0 19 -11 32 -25
18 -19 26 -22 37 -13 11 9 9 16 -14 41 l-28 29 24 17 c26 17 78 39 99 40 8 1
12 -13 12 -39z"/>
<path d="M432 620 c-70 -43 -92 -128 -49 -191 57 -86 178 -88 233 -4 77 118
-64 268 -184 195z"/>
<path d="M13 529 c-18 -18 -16 -44 3 -60 12 -10 22 -10 48 -1 18 7 42 12 54
12 37 0 28 37 -10 43 -18 3 -44 8 -58 12 -15 4 -30 1 -37 -6z"/>
<path d="M930 530 c-8 -5 -27 -10 -42 -10 -21 0 -28 -5 -28 -19 0 -14 10 -20
38 -25 70 -12 84 -11 96 7 22 34 -27 71 -64 47z"/>
<path d="M220 245 c-8 -9 -29 -23 -47 -30 -29 -12 -34 -19 -31 -42 2 -22 9
-29 30 -31 22 -3 30 2 40 25 6 15 20 37 30 49 16 18 17 23 5 33 -11 9 -17 8
-27 -4z"/>
<path d="M751 247 c-9 -11 -8 -17 4 -27 9 -8 23 -29 30 -47 12 -29 19 -34 42
-31 22 2 29 9 31 30 3 22 -2 30 -25 40 -15 6 -37 20 -49 30 -18 16 -23 17 -33
5z"/>
<path d="M476 103 c-12 -71 -11 -85 7 -97 24 -15 53 4 50 35 -7 72 -16 99 -33
99 -13 0 -20 -11 -24 -37z"/>
</g>
</svg>
