<?xml version="1.0" standalone="no"?>
<!DOCTYPE svg PUBLIC "-//W3C//DTD SVG 20010904//EN"
 "http://www.w3.org/TR/2001/REC-SVG-20010904/DTD/svg10.dtd">
<svg version="1.0" xmlns="http://www.w3.org/2000/svg"
 width="3430.000000pt" height="943.000000pt" viewBox="0 0 3430.000000 943.000000"
 preserveAspectRatio="xMidYMid meet">

<g transform="translate(0.000000,943.000000) scale(0.100000,-0.100000)"
fill="#000000" stroke="none">
<path d="M19270 6510 c-1297 -61 -2438 -299 -3233 -674 -54 -25 -100 -46 -102
-46 -2 0 -25 -13 -50 -29 -25 -16 -73 -39 -108 -51 -34 -12 -71 -25 -82 -29
-123 -47 -555 -181 -680 -212 -187 -46 -460 -93 -630 -109 -66 -6 -165 -15
-220 -21 -239 -24 -770 -15 -960 16 -49 8 -128 19 -175 25 -47 6 -105 17 -130
25 -25 7 -79 19 -120 25 -72 12 -297 73 -329 90 -9 5 -41 17 -71 26 -30 9 -73
25 -95 35 -22 10 -74 30 -115 45 -41 14 -113 46 -160 69 -101 52 -176 80 -283
105 -44 11 -88 27 -98 36 -11 10 -27 14 -41 11 -13 -4 -44 1 -68 9 -25 9 -74
20 -110 26 -91 13 -98 14 -165 31 -33 8 -73 16 -90 16 -83 2 -468 -1 -525 -4
-424 -22 -615 -46 -870 -110 -52 -13 -120 -29 -150 -35 -128 -27 -198 -43
-240 -57 -57 -19 -155 -41 -245 -54 -38 -6 -95 -15 -125 -20 -30 -5 -116 -14
-190 -20 -74 -6 -218 -24 -320 -40 -456 -73 -746 -93 -1243 -86 -677 10 -1219
96 -1788 283 -91 29 -178 54 -192 54 -15 0 -60 9 -100 20 -568 160 -1245 327
-1572 389 -341 64 -451 72 -840 61 -498 -15 -768 -57 -1267 -200 -238 -68
-1438 -469 -1476 -493 -9 -7 -12 -580 -12 -2813 l0 -2804 17150 0 17150 0 0
2493 c0 2240 -2 2495 -16 2515 -9 13 -26 22 -42 22 -29 0 -92 34 -92 49 0 6
-24 22 -52 36 -29 15 -60 33 -68 40 -8 7 -55 32 -105 55 -49 22 -98 45 -107
50 -10 6 -24 10 -32 10 -8 0 -16 3 -18 8 -1 4 -25 18 -53 32 -27 14 -72 38
-100 53 -50 27 -207 97 -277 123 -20 7 -65 27 -100 44 -34 17 -79 37 -98 44
-19 8 -105 44 -190 81 -228 99 -309 126 -555 190 -49 12 -110 30 -135 39 -25
9 -53 16 -63 16 -9 0 -25 4 -35 9 -32 16 -88 31 -117 31 -15 0 -80 13 -144 29
-64 16 -163 37 -221 46 -58 9 -141 25 -185 35 -44 10 -138 23 -210 29 -136 12
-141 13 -325 35 -136 16 -108 14 -345 22 -188 6 -269 1 -475 -32 -78 -12 -206
-28 -565 -70 -71 -8 -152 -17 -180 -20 -196 -21 -485 -73 -663 -119 -52 -14
-97 -24 -100 -23 -8 2 -91 -15 -207 -43 -44 -10 -147 -32 -230 -48 -236 -46
-295 -59 -370 -76 -38 -9 -101 -23 -140 -31 -38 -9 -104 -26 -145 -39 -137
-43 -264 -78 -340 -93 -41 -8 -140 -34 -220 -58 -235 -68 -418 -103 -650 -124
-69 -6 -156 -15 -193 -21 -37 -5 -112 -7 -165 -4 -53 3 -160 8 -237 10 -77 2
-155 7 -174 10 -134 20 -280 49 -386 76 -22 6 -60 14 -85 19 -25 4 -61 13 -80
19 -19 5 -69 19 -110 31 -113 31 -248 69 -315 90 -33 11 -91 26 -130 34 -38 9
-117 29 -175 46 -58 17 -127 37 -155 44 -27 7 -69 23 -92 35 -23 11 -51 21
-61 21 -11 0 -41 10 -68 21 -47 21 -102 36 -234 65 -36 8 -84 19 -108 24 -24
5 -58 16 -75 24 -18 8 -45 17 -62 21 -16 3 -46 10 -65 15 -19 5 -53 13 -75 18
-22 5 -50 14 -62 20 -12 7 -44 12 -72 12 -62 0 -149 17 -178 36 -12 8 -38 14
-56 14 -19 0 -47 4 -63 9 -16 5 -54 16 -84 25 -30 8 -114 33 -186 55 -276 83
-952 237 -1119 254 -16 2 -56 9 -87 15 -117 24 -165 32 -268 42 -58 6 -152 17
-210 25 -157 22 -302 35 -425 39 -342 10 -1046 13 -1205 6z"/>
</g>
</svg>
